:SAMPLES-PER-SECOND 30
:FULLY-SPECIFIED
:DEGREES
47
root  80.6548 39.6566 -5.88304 -37.9423 -87.1858 37.9436
RightUpLeg  0.469554 -11.0236 -4.8257
RightLeg  13.5578 -7.30191 2.83074
RightFoot  -14.6807 -0.101258 -0.0644231
RightToes  -1.16417e-010 0 -3.6325e-017
Spine  6.45328 -0.649735 9.05811
Spine1  8.06078 0.101366 -0.663842
HEad  -14.5568 1.58262 -4.69833
LeftShoulder1  9.37873 -12.7808 -50.2742
LeftArm  -8.6084 14.3191 -29.3483
LeftForeArm  27.9667 -30.473 -5.0908
LeftHand  -0.244104 0.0205437 5.32207
RightShoulder  6.83177 10.1285 43.712
RightArm  1.66903 -6.94592 30.4388
RightForeArm  -13.8754 13.6216 8.65786
RightHand  -0.756524 0.45161 -15.0825
LeftUpLeg  -18.6302 8.33195 1.4807
LeftLeg  37.2474 5.17845 4.58956
LeftFoot  -8.03706 0.202243 -5.3251
LeftToes  -1.16419e-010 -9.34044e-011 -2.32061e-011
48
root  80.1615 39.6897 -5.97409 -44.8563 -86.6999 45.2181
RightUpLeg  1.36629 -10.7259 -5.42336
RightLeg  12.6477 -7.60567 2.987
RightFoot  -14.9081 -0.0976449 0.105387
RightToes  -1.16417e-010 0 -3.6325e-017
Spine  6.08654 -0.268512 9.21422
Spine1  7.96387 0.71993 -1.84574
HEad  -13.8033 0.835462 -4.55439
LeftShoulder1  9.31091 -12.6932 -50.1808
LeftArm  -8.06294 15.5087 -29.5299
LeftForeArm  28.122 -30.4022 -5.06555
LeftHand  -0.244104 0.0205437 5.32207
RightShoulder  6.6861 9.99174 43.1858
RightArm  3.17633 -5.33474 30.9016
RightForeArm  -14.8863 15.6332 7.95907
RightHand  -0.701378 0.240454 -14.5086
LeftUpLeg  -20.8787 8.95218 -0.589612
LeftLeg  36.4268 4.99225 4.30066
LeftFoot  -7.70875 0.231456 -5.84487
LeftToes  -1.16419e-010 -9.34044e-011 -2.32061e-011
49
root  79.6221 39.7247 -6.05537 -50.3159 -86.2822 50.9512
RightUpLeg  2.5543 -10.4815 -5.96669
RightLeg  11.4454 -7.86228 3.16908
RightFoot  -14.9483 -0.0974752 0.117778
RightToes  -1.16417e-010 0 -3.6325e-017
Spine  5.92766 0.0650198 9.33265
Spine1  7.82668 1.30977 -3.11928
HEad  -13.2073 0.441756 -4.7757
LeftShoulder1  9.24808 -12.6116 -50.095
LeftArm  -7.31377 16.6712 -29.4359
LeftForeArm  27.8432 -29.5463 -4.88315
LeftHand  -0.244104 0.0205437 5.32207
RightShoulder  6.57605 9.87529 42.8238
RightArm  5.30108 -3.63413 31.1994
RightForeArm  -17.1319 17.9267 7.18624
RightHand  -0.68102 0.0354006 -14.6018
LeftUpLeg  -22.4155 9.91904 -2.64601
LeftLeg  33.4001 5.68 4.36794
LeftFoot  -7.1589 0.24643 -5.57412
LeftToes  -1.16419e-010 -9.34044e-011 -2.32061e-011
50
root  79.0288 39.7241 -6.11814 -53.1034 -85.8993 53.9502
RightUpLeg  3.8782 -10.4117 -6.47604
RightLeg  10.3456 -7.90862 3.40479
RightFoot  -15.2197 -0.0912286 0.341043
RightToes  -1.16417e-010 0 -3.6325e-017
Spine  5.7626 0.339191 9.28982
Spine1  7.89537 1.77504 -4.10005
HEad  -12.8703 0.0982785 -5.15817
LeftShoulder1  9.24332 -12.6115 -50.0697
LeftArm  -6.55938 17.6265 -29.1905
LeftForeArm  26.8177 -27.4893 -4.46746
LeftHand  -0.244104 0.0205437 5.32207
RightShoulder  6.48283 9.76025 42.5671
RightArm  7.13252 -1.71972 31.3122
RightForeArm  -18.8134 20.0529 6.49166
RightHand  -0.691412 0.0430793 -14.8034
LeftUpLeg  -23.5026 10.9724 -4.60471
LeftLeg  29.1271 5.63479 3.73912
LeftFoot  -6.62502 0.255548 -5.23101
LeftToes  -1.16419e-010 -9.34044e-011 -2.32061e-011
51
root  78.3705 39.6813 -6.16016 -55.1035 -85.7197 56.1617
RightUpLeg  5.23464 -10.3998 -6.85023
RightLeg  9.40686 -7.72433 3.62677
RightFoot  -15.7217 -0.0757661 0.801787
RightToes  -1.16417e-010 0 -3.6325e-017
Spine  5.40073 0.57226 9.22293
Spine1  8.3188 2.1538 -4.84913
HEad  -12.921 0.176615 -5.47476
LeftShoulder1  9.26109 -12.6498 -50.0472
LeftArm  -5.71834 18.3376 -29.0311
LeftForeArm  25.1485 -24.3848 -3.93033
LeftHand  -0.244104 0.0205437 5.32207
RightShoulder  6.39789 9.6835 42.2331
RightArm  7.94515 0.316598 31.4483
RightForeArm  -18.4455 21.7084 6.02384
RightHand  -0.691317 0.199618 -14.3999
LeftUpLeg  -24.2154 12.0384 -6.34553
LeftLeg  24.0924 4.45561 2.53659
LeftFoot  -5.59375 0.287334 -5.06027
LeftToes  -1.16419e-010 -9.34044e-011 -2.32061e-011
52
root  77.6378 39.618 -6.19035 -59.8185 -85.8038 61.0543
RightUpLeg  6.63672 -10.3331 -7.09399
RightLeg  8.58387 -7.44533 3.71577
RightFoot  -16.142 -0.0696227 0.950418
RightToes  -1.16417e-010 0 -3.6325e-017
Spine  4.87999 0.816021 9.13458
Spine1  9.0425 2.58055 -5.61157
HEad  -13.4845 0.952662 -5.59279
LeftShoulder1  9.22053 -12.6483 -49.8338
LeftArm  -5.4229 18.9169 -29.0121
LeftForeArm  23.7322 -20.5233 -3.81002
LeftHand  -0.244104 0.0205437 5.32207
RightShoulder  6.37284 9.7066 41.9775
RightArm  8.09373 2.2986 31.5672
RightForeArm  -17.0354 22.9117 5.83055
RightHand  -0.65889 0.202355 -13.7239
LeftUpLeg  -24.4754 13.1804 -7.79613
LeftLeg  18.6291 3.30801 1.48254
LeftFoot  -3.79403 0.30652 -4.32534
LeftToes  -1.16419e-010 -9.34044e-011 -2.32061e-011
53
root  76.82 39.5247 -6.2132 -66.9763 -85.9448 68.329
RightUpLeg  8.09262 -10.2694 -7.36522
RightLeg  8.01137 -7.07756 3.69723
RightFoot  -16.6446 -0.0739421 0.836289
RightToes  -1.16417e-010 0 -3.6325e-017
Spine  4.23736 1.02252 8.77534
Spine1  9.98969 2.98667 -6.28236
HEad  -14.4571 2.18408 -5.51601
LeftShoulder1  9.12996 -12.6169 -49.4421
LeftArm  -6.94258 19.5265 -28.8732
LeftForeArm  24.2128 -16.374 -4.53577
LeftHand  -0.244104 0.0205437 5.32207
RightShoulder  6.44314 9.84628 41.9975
RightArm  8.12352 4.18986 31.5921
RightForeArm  -15.818 23.6894 5.83124
RightHand  -0.615043 -0.0981805 -13.5242
LeftUpLeg  -24.2773 12.5012 -8.03453
LeftLeg  13.7062 4.98981 0.391098
LeftFoot  -2.2545 0.269116 -3.20275
LeftToes  -1.16419e-010 -9.34044e-011 -2.32061e-011
54
root  75.9093 39.3692 -6.20951 -73.9999 -86.0804 75.4254
RightUpLeg  9.61565 -10.2973 -7.75113
RightLeg  7.78005 -6.32256 3.73174
RightFoot  -17.5323 -0.0482844 1.28633
RightToes  -1.16417e-010 0 -3.6325e-017
Spine  3.47963 1.13136 8.2577
Spine1  11.0219 3.27117 -6.82946
HEad  -15.3745 3.19038 -5.28162
LeftShoulder1  9.07624 -12.6482 -49.0564
LeftArm  -8.69058 20.339 -28.5192
LeftForeArm  25.4721 -12.6692 -5.14609
LeftHand  -0.244104 0.0205437 5.32207
RightShoulder  6.55575 10.0403 42.1284
RightArm  8.10057 5.78757 31.7439
RightForeArm  -14.5208 24.0672 5.85101
RightHand  -0.579359 -0.540356 -13.8604
LeftUpLeg  -23.7912 8.36899 -6.30174
LeftLeg  10.4953 10.5923 -1.1243
LeftFoot  -1.98488 0.237827 -2.75475
LeftToes  -1.16419e-010 -9.34044e-011 -2.32061e-011
